# xmcd CD database file
#
# Track frame offsets:
#	150
#	26477
#	43165
#	53320
#	64952
#	88147
#	102432
#	109510
#	123200
#	137667
#	165020
#	188740
#
# Disc length: 3112 seconds
#
# Revision: 0
# Processed by: cddbd v1.5PL3 Copyright (c) Steve Scherf et al.
# Submitted via: CDex 1.51
#
DISCID=920c260c
DTITLE=Dmbq - Dmbq
DYEAR=2002
DGENRE=Rock
TTITLE0=Small Hours
TTITLE1=Rock-a-Cola
TTITLE2=Ohh! Baby
TTITLE3=Teenage Linbo
TTITLE4=Little Leaf i)Movement
TTITLE5=Little Leaf ii)Swell
TTITLE6=Little Leaf iii)Etude
TTITLE7=Sayonara-No Season
TTITLE8=Altered Rock
TTITLE9=Can Peace
TTITLE10=Migrate to MidNight
TTITLE11=E (means Eternal)
EXTD=YEAR: 2002
EXTT0=
EXTT1=
EXTT2=
EXTT3=
EXTT4=
EXTT5=
EXTT6=
EXTT7=
EXTT8=
EXTT9=
EXTT10=
EXTT11=
PLAYORDER=
